<?xml version="1.0" encoding="UTF-8"?>
<svg version="1.1" xmlns="http://www.w3.org/2000/svg" width="381" height="381">
<path d="M0 0 C0.7739209 0.17128418 1.5478418 0.34256836 2.34521484 0.51904297 C32.24892537 7.24398629 61.23505593 22.72308543 83.55078125 43.703125 C85.67059844 45.69108754 87.8364453 47.57134636 90.0625 49.4375 C117.88004709 73.80612357 136.23974787 111.29682452 144 147 C144.16371094 147.70833984 144.32742188 148.41667969 144.49609375 149.14648438 C150.19746581 174.70842109 148.99350326 204.67132524 143 230 C142.82871582 230.7739209 142.65743164 231.5478418 142.48095703 232.34521484 C135.75601371 262.24892537 120.27691457 291.23505593 99.296875 313.55078125 C97.30891246 315.67059844 95.42865364 317.8364453 93.5625 320.0625 C69.19387643 347.88004709 31.70317548 366.23974787 -4 374 C-4.70833984 374.16371094 -5.41667969 374.32742188 -6.14648438 374.49609375 C-31.70842109 380.19746581 -61.67132524 378.99350326 -87 373 C-87.7739209 372.82871582 -88.5478418 372.65743164 -89.34521484 372.48095703 C-119.24892537 365.75601371 -148.23505593 350.27691457 -170.55078125 329.296875 C-172.67059844 327.30891246 -174.8364453 325.42865364 -177.0625 323.5625 C-204.88004709 299.19387643 -223.23974787 261.70317548 -231 226 C-231.16371094 225.29166016 -231.32742187 224.58332031 -231.49609375 223.85351562 C-237.19746581 198.29157891 -235.99350326 168.32867476 -230 143 C-229.82871582 142.2260791 -229.65743164 141.4521582 -229.48095703 140.65478516 C-222.75601371 110.75107463 -207.27691457 81.76494407 -186.296875 59.44921875 C-184.30891246 57.32940156 -182.42865364 55.1635547 -180.5625 52.9375 C-156.19387643 25.11995291 -118.70317548 6.76025213 -83 -1 C-81.93749023 -1.24556641 -81.93749023 -1.24556641 -80.85351562 -1.49609375 C-55.29157891 -7.19746581 -25.32867476 -5.99350326 0 0 Z M-83 53 C-83 73.79 -83 94.58 -83 116 C-111.11726485 100.25433168 -111.11726485 100.25433168 -123.16601562 93.08740234 C-127.76062059 90.36317837 -132.3832425 87.68643693 -137 85 C-139.75746999 88.30538577 -142.02895473 91.58942457 -144.1015625 95.359375 C-144.66891113 96.38385742 -145.23625977 97.40833984 -145.82080078 98.46386719 C-146.41618652 99.54829102 -147.01157227 100.63271484 -147.625 101.75 C-151.71532105 109.13015473 -155.81418635 116.49602116 -160.125 123.75 C-165.87416004 133.42879774 -171.43502764 143.21446729 -177 153 C-174.0308803 156.23051546 -171.03965275 158.32125541 -167.22265625 160.46875 C-166.07829102 161.11714844 -164.93392578 161.76554687 -163.75488281 162.43359375 C-162.52414548 163.12249756 -161.29335006 163.81129762 -160.0625 164.5 C-158.80659342 165.20897557 -157.55106228 165.91861659 -156.29589844 166.62890625 C-153.75829255 168.06409255 -151.21895891 169.49614449 -148.67822266 170.92578125 C-143.35389306 173.92438351 -138.05241126 176.96286379 -132.75 180 C-131.03657263 180.97936667 -129.32304339 181.95855513 -127.609375 182.9375 C-126.40625 183.625 -125.203125 184.3125 -124 185 C-126.52271762 187.84000345 -129.34646149 189.4819976 -132.64453125 191.3359375 C-133.78696289 191.98240234 -134.92939453 192.62886719 -136.10644531 193.29492188 C-136.71153931 193.63450928 -137.3166333 193.97409668 -137.94006348 194.32397461 C-141.10249281 196.09909141 -144.2560016 197.88992174 -147.41015625 199.6796875 C-148.0468222 200.04048401 -148.68348816 200.40128052 -149.33944702 200.77301025 C-155.51721658 204.28000497 -161.64049892 207.87527802 -167.75 211.5 C-168.68948486 212.0573584 -169.62896973 212.6147168 -170.59692383 213.18896484 C-172.73230738 214.45760174 -174.86677602 215.72773622 -177 217 C-175.5839494 220.78518732 -173.84578935 224.19749321 -171.83203125 227.69921875 C-171.19313965 228.81377441 -170.55424805 229.92833008 -169.89599609 231.07666016 C-169.20159745 232.28033117 -168.50709629 233.48394303 -167.8125 234.6875 C-167.09691381 235.93263391 -166.3815854 237.17791601 -165.66650391 238.42333984 C-163.81527447 241.64557513 -161.95997271 244.86544668 -160.10369873 248.08477783 C-158.68014907 250.55502971 -157.2593689 253.02686799 -155.83872986 255.49879456 C-154.18548568 258.37496417 -152.53030618 261.25001654 -150.875 264.125 C-150.27276611 265.17131592 -149.67053223 266.21763184 -149.05004883 267.2956543 C-145.42987694 273.5693023 -141.74921906 279.80259048 -138 286 C-134.1480562 284.56345777 -130.68580831 282.77708522 -127.125 280.7265625 C-126.56039062 280.40271576 -125.99578125 280.07886902 -125.4140625 279.74520874 C-123.6076039 278.70818488 -121.80374166 277.66674094 -120 276.625 C-117.66672024 275.28376096 -115.33338526 273.94261799 -113 272.6015625 C-110.36 271.08304688 -107.72 269.56453125 -105 268 C-98.07 264.04 -91.14 260.08 -84 256 C-83.67 276.46 -83.34 296.92 -83 318 C-56.6 318 -30.2 318 -3 318 C-3 297.21 -3 276.42 -3 255 C23 270 23 270 31.12109375 274.7109375 C32.19681641 275.33484375 33.27253906 275.95875 34.38085938 276.6015625 C36.50957602 277.83662622 38.63709053 279.07376325 40.76367188 280.3125 C41.80974609 280.91835938 42.85582031 281.52421875 43.93359375 282.1484375 C44.84165771 282.67614746 45.74972168 283.20385742 46.68530273 283.74755859 C49.04741501 285.1121051 49.04741501 285.1121051 52 286 C58.16409276 275.87685579 64.13212079 265.6449987 70.03149414 255.36547852 C73.07872741 250.0562473 76.13508627 244.75470407 79.25045776 239.48521423 C80.66544702 237.09086337 82.0731344 234.69225737 83.48040771 232.29336548 C84.4852777 230.58749266 85.50062433 228.88780529 86.51611328 227.18823242 C87.1192334 226.15802979 87.72235352 225.12782715 88.34375 224.06640625 C88.88193359 223.15834229 89.42011719 222.25027832 89.97460938 221.31469727 C91.34689849 218.91840843 91.34689849 218.91840843 90 216 C87.6210402 214.3066959 87.6210402 214.3066959 84.62109375 212.69921875 C83.4825293 212.05791016 82.34396484 211.41660156 81.17089844 210.75585938 C79.92645799 210.06635987 78.68199128 209.37690776 77.4375 208.6875 C75.53438265 207.61997878 73.63313471 206.54917727 71.73190308 205.478302 C70.43231523 204.74665869 69.13211669 204.01609917 67.83132935 203.28659058 C61.2603504 199.59869722 54.75162592 195.80869761 48.25 192 C47.21544678 191.39502686 46.18089355 190.79005371 45.11499023 190.16674805 C42.74262561 188.77902349 40.37093016 187.39017338 38 186 C37.34 186.66 36.68 187.32 36 188 C33.5925293 188.51489258 33.5925293 188.51489258 30.57421875 188.89453125 C28.92305054 189.11641113 28.92305054 189.11641113 27.23852539 189.34277344 C26.06668701 189.4977832 24.89484863 189.65279297 23.6875 189.8125 C5.88944922 192.38874036 -9.14333959 197.59444399 -21 212 C-35.87152876 232.56906251 -40.38338023 257.94668259 -40 283 C-41.32 282.67 -42.64 282.34 -44 282 C-44.09498779 281.02877197 -44.18997559 280.05754395 -44.2878418 279.05688477 C-48.29276675 236.68422952 -48.29276675 236.68422952 -72.6875 202.75 C-83.22434358 194.81128224 -94.25158156 191.8864384 -107 190 C-108.93359375 189.69255859 -108.93359375 189.69255859 -110.90625 189.37890625 C-113.93523912 188.90151123 -116.96562978 188.44164635 -120 188 C-120.495 185.525 -120.495 185.525 -121 183 C-120.37134033 182.93006836 -119.74268066 182.86013672 -119.0949707 182.78808594 C-96.87754264 180.26009906 -78.07772311 176.77095717 -63.02734375 158.62109375 C-51.17758969 142.39604589 -47.60925535 125.13579794 -45.75 105.625 C-45.57668516 103.9061322 -45.40221283 102.18738071 -45.2265625 100.46875 C-44.80439461 96.3137157 -44.3977736 92.15743756 -44 88 C-43.01 88.33 -42.02 88.66 -41 89 C-40.72864939 91.02076394 -40.45797701 93.04161894 -40.1875 95.0625 C-40.05384033 96.04452393 -40.05384033 96.04452393 -39.91748047 97.04638672 C-39.35031815 101.24684265 -38.8265787 105.44958014 -38.33984375 109.66015625 C-35.71634335 131.90949296 -30.29780653 150.11510362 -14 166 C-13.39285156 166.61617188 -12.78570312 167.23234375 -12.16015625 167.8671875 C-0.39851289 178.96741815 15.6382261 180.59558711 30.9765625 182.47265625 C34 183 34 183 36.38745117 184.17919922 C38.96589598 185.27463598 38.96589598 185.27463598 41.3581543 184.17993164 C42.17195557 183.67840576 42.98575684 183.17687988 43.82421875 182.66015625 C44.75862793 182.0983667 45.69303711 181.53657715 46.65576172 180.95776367 C47.65623535 180.33232666 48.65670898 179.70688965 49.6875 179.0625 C51.82874229 177.76709656 53.97069626 176.47286892 56.11328125 175.1796875 C57.2317041 174.49745117 58.35012695 173.81521484 59.50244141 173.11230469 C64.82761043 169.87944091 70.23405261 166.78641163 75.63687134 163.6857605 C77.35787513 162.69733533 79.07677662 161.70525266 80.7956543 160.71313477 C88.72867504 156.13566248 88.72867504 156.13566248 91 155 C90.05409004 150.65440989 87.98587789 147.08929652 85.8125 143.25 C85.37325195 142.46705566 84.93400391 141.68411133 84.48144531 140.87744141 C79.05727156 131.25505451 73.46332228 121.73032737 67.87597656 112.20214844 C64.61721383 106.63968983 61.37192807 101.06937201 58.125 95.5 C56.94016223 93.46871613 55.75527196 91.43746289 54.5703125 89.40625 C53.71354167 87.9375 52.85677083 86.46875 52 85 C43.46470731 89.44779444 35.07003476 94.0700621 26.79492188 98.9855957 C20.75171211 102.57186471 14.66520372 106.0785132 8.5625 109.5625 C7.64388184 110.0874707 6.72526367 110.61244141 5.77880859 111.15332031 C-0.72616401 114.86308201 -0.72616401 114.86308201 -3 116 C-3 95.21 -3 74.42 -3 53 C-29.4 53 -55.8 53 -83 53 Z " fill="#D5A8D3" transform="translate(234,4)"/>
<path d="M0 0 C1.32 0.33 2.64 0.66 4 1 C4.27135061 3.02076394 4.54202299 5.04161894 4.8125 7.0625 C4.90160645 7.71718262 4.99071289 8.37186523 5.08251953 9.04638672 C5.64968185 13.24684265 6.1734213 17.44958014 6.66015625 21.66015625 C9.55416717 46.20363391 16.1907586 65.72971777 35.4375 81.9375 C44.60443513 88.4930123 54.47703932 90.77648792 65.5 92.0625 C67.78313689 92.32937674 70.06457683 92.61131361 72.34375 92.91015625 C73.33568359 93.02496338 74.32761719 93.13977051 75.34960938 93.25805664 C78.53341288 94.14932219 79.8815586 95.51434953 82 98 C80 101 80 101 77.5925293 101.62841797 C76.09846558 101.80848389 76.09846558 101.80848389 74.57421875 101.9921875 C73.47343994 102.13688477 72.37266113 102.28158203 71.23852539 102.43066406 C70.06668701 102.57729492 68.89484863 102.72392578 67.6875 102.875 C49.39788554 105.4528559 35.50756727 110.64998412 23.1328125 125.109375 C11.48513464 140.89560507 8.44378494 158.02558545 6.32470703 177.14355469 C5.874582 181.10330124 5.35202738 185.05159616 4.8125 189 C4.57466797 190.7634375 4.57466797 190.7634375 4.33203125 192.5625 C4.22246094 193.366875 4.11289063 194.17125 4 195 C2.35 194.67 0.7 194.34 -1 194 C-1.09498779 193.02877197 -1.18997559 192.05754395 -1.2878418 191.05688477 C-4.18797337 153.91487223 -4.18797337 153.91487223 -22.71484375 122.48828125 C-24 121 -24 121 -24 119 C-24.58652344 118.72800781 -25.17304688 118.45601563 -25.77734375 118.17578125 C-27.95688333 117.02280864 -29.65909709 115.74557711 -31.5625 114.1875 C-42.13066514 106.23713723 -54.03726394 104.12945048 -66.84375 102.515625 C-68.0090625 102.36609375 -69.174375 102.2165625 -70.375 102.0625 C-71.41398437 101.95035156 -72.45296875 101.83820313 -73.5234375 101.72265625 C-76 101 -76 101 -77.4140625 99.05859375 C-78 97 -78 97 -77 95 C-74.61342821 94.42005698 -72.2929635 93.9618583 -69.875 93.5625 C-68.40622349 93.29832445 -66.93747409 93.03399811 -65.46875 92.76953125 C-62.67986834 92.28207801 -59.89108498 91.82590034 -57.09375 91.38671875 C-41.35296707 88.69160571 -28.07973121 81.74260027 -18.49609375 68.703125 C-6.41212111 51.28086103 -4.01932649 31.98864769 -2.00146484 11.37084961 C-1.88496582 10.19014893 -1.7684668 9.00944824 -1.6484375 7.79296875 C-1.54708496 6.7258667 -1.44573242 5.65876465 -1.34130859 4.55932617 C-1 2 -1 2 0 0 Z " fill="#C4B9E4" transform="translate(190,92)"/>
</svg>
